PathFileType	4	(X/Y/Z)	7_coords_data.trc
DataRate	CameraRate	NumFrames	NumMarkers	Units	OrigDataRate	OrigDataStartFrame	OrigNumFrames
30.0	30.0	6	21	m	30.0	20	49
Frame#	Time	THUMB_TIP	THUMB_IP	THUMB_MCP	THUMB_CMC	INDEX_TIP	INDEX_DIP	INDEX_PIP	INDEX_MCP	MIDDLE_TIP	MIDDLE_DIP	MIDDLE_PIP	MIDDLE_MCP	RING_TIP	RING_DIP	RING_PIP	RING_MCP	PINKY_TIP	PINKY_DIP	PINKY_PIP	PINKY_MCP	WRIST
X1	Y1	Z1	X2	Y2	Z2	X3	Y3	Z3	X4	Y4	Z4	X5	Y5	Z5	X6	Y6	Z6	X7	Y7	Z7	X8	Y8	Z8	X9	Y9	Z9	X10	Y10	Z10	X11	Y11	Z11	X12	Y12	Z12	X13	Y13	Z13	X14	Y14	Z14	X15	Y15	Z15	X16	Y16	Z16	X17	Y17	Z17	X18	Y18	Z18	X19	Y19	Z19	X20	Y20	Z20	X21	Y21	Z21
19	0.6333333333333333	-0.026981800079345704	-0.05637770080566406	0.985458984375	-0.03273659896850586	-0.04228120040893555	1.0081500244140624	-0.04131800079345703	-0.033075599670410155	1.035489990234375	-0.04381809997558594	-0.0050099101066589345	1.057260009765625	-0.03171599960327148	-0.012977999687194824	1.0203599853515626	-0.020219900131225585	-0.010616700172424316	1.00375	-0.027990699768066406	-0.007966919898986817	0.982302001953125	-0.06203120040893555	-0.009336770057678223	0.999802001953125	-0.03108449935913086	-0.000446458011865615	1.029719970703125	-0.01892210006713867	0.005047880172729492	1.0171300048828125	-0.02046660041809082	0.01289430046081543	0.9913090209960937	-0.061251399993896484	0.014736599922180176	0.9982069702148437	-0.03582329940795898	0.013583499908447266	1.0399100341796874	-0.0223125	0.020067899703979493	1.0286600341796874	-0.019467300415039062	0.030608999252319337	1.0064000244140625	-0.05843759918212891	0.033965999603271485	1.006969970703125	-0.03658459854125977	0.028027700424194335	1.046280029296875	-0.02383259963989258	0.03353030014038086	1.03781005859375	-0.022732500076293946	0.04316699981689453	1.0225499877929687	-0.05236909866333008	0.049216598510742185	1.0197999877929687	-0.06181489944458008	0.01937459945678711	1.07375
20	0.6666666666666666	-0.026556400299072264	-0.05615620040893555	0.98547802734375	-0.032506500244140625	-0.04224860000610352	1.0081799926757813	-0.041272499084472655	-0.03308840179443359	1.0355999755859375	-0.043902999877929685	-0.005065889835357666	1.0572900390625	-0.0314916000366211	-0.013062600135803223	1.0198099975585937	-0.02020479965209961	-0.010540599822998048	1.0034199829101562	-0.028232799530029298	-0.007837769985198974	0.982031005859375	-0.062131999969482425	-0.009357460021972656	0.9997930297851563	-0.03136750030517578	-0.000576568007469177	1.02981005859375	-0.019034000396728517	0.005067130088806152	1.0171199951171874	-0.020658000946044922	0.012991900444030762	0.9912849731445312	-0.061364200592041014	0.014712699890136719	0.998125	-0.03595370101928711	0.013484499931335448	1.039989990234375	-0.022500099182128905	0.02000270080566406	1.02877001953125	-0.01959280014038086	0.030609899520874024	1.006469970703125	-0.05856460189819336	0.033991500854492186	1.0070700073242187	-0.0368578987121582	0.028082300186157226	1.046239990234375	-0.024020299911499024	0.03343790054321289	1.037949951171875	-0.02285300064086914	0.04311650085449219	1.0226799926757812	-0.05253620147705078	0.04924449920654297	1.01997998046875	-0.06176060104370117	0.019233600616455078	1.07375
21	0.7	-0.02614150047302246	-0.05585829925537109	0.9854320068359375	-0.032344398498535154	-0.04213560104370117	1.00827001953125	-0.04120550155639648	-0.033160598754882815	1.0355699462890624	-0.04389279937744141	-0.005234419822692871	1.0571600341796874	-0.03152350044250488	-0.013040399551391602	1.02027001953125	-0.02020140075683594	-0.010622500419616699	1.0036400146484374	-0.028253999710083008	-0.007903989791870117	0.9821699829101562	-0.062180801391601564	-0.009427980422973633	0.9998690185546875	-0.0314640998840332	-0.000670495986938476	1.029780029296875	-0.019027799606323243	0.004996660232543945	1.0171900024414062	-0.020628000259399416	0.012893699645996093	0.9915020141601563	-0.06143310165405273	0.014608499526977538	0.9982470092773438	-0.035972900390625	0.013403300285339356	1.0399000244140626	-0.02253809928894043	0.01989069938659668	1.0288699951171876	-0.019641099929809572	0.03050309944152832	1.0067100219726564	-0.05863970184326172	0.03387509918212891	1.0071799926757812	-0.0368317985534668	0.027777000427246092	1.0464200439453124	-0.024064199447631836	0.03337730026245117	1.03806005859375	-0.023010499954223634	0.04301100158691406	1.0229600219726562	-0.05261840057373047	0.0491068000793457	1.020010009765625	-0.06195000076293945	0.019154800415039062	1.07372998046875
22	0.7333333333333333	-0.02571269989013672	-0.05594469833374023	0.98575	-0.03210340118408203	-0.04228580093383789	1.0084099731445313	-0.04113029861450195	-0.03331010055541992	1.035760009765625	-0.043959800720214846	-0.0054021401405334474	1.0573599853515625	-0.03141220092773438	-0.01330090045928955	1.0203800048828124	-0.020145599365234374	-0.010897500038146973	1.0038099975585937	-0.028284900665283202	-0.0082262601852417	0.9824329833984375	-0.062158500671386716	-0.009730119705200196	1.0000700073242188	-0.03132469940185547	-0.0008699839711189271	1.0300799560546876	-0.01902980041503906	0.004714590072631836	1.0175700073242187	-0.020595399856567383	0.01257349967956543	0.9918070068359375	-0.06136130142211914	0.014353400230407714	0.998416015625	-0.03600080108642578	0.01315839958190918	1.0400699462890626	-0.022555099487304688	0.01962339973449707	1.0290699462890625	-0.01960390090942383	0.03018600082397461	1.0069299926757813	-0.058583499908447266	0.033594200134277344	1.0072000122070313	-0.037086200714111325	0.027502300262451172	1.0468499755859375	-0.02411739921569824	0.03313579940795899	1.038219970703125	-0.022962699890136717	0.04277429962158203	1.022989990234375	-0.05259400177001953	0.04885380172729492	1.0200700073242188	-0.062062198638916016	0.01899650001525879	1.0739100341796874
23	0.7666666666666667	-0.0261033992767334	-0.05617929840087891	0.9857340087890625	-0.03234619903564453	-0.042546398162841795	1.0085900268554688	-0.04124409866333008	-0.0335979995727539	1.0358900146484376	-0.04391569900512695	-0.005687910079956055	1.0575	-0.031118799209594726	-0.013470600128173828	1.0205800170898438	-0.02025309944152832	-0.011136899948120118	1.0039600219726563	-0.02808270072937012	-0.00841471004486084	0.9827239990234375	-0.062149898529052734	-0.00996636962890625	1.0000900268554687	-0.03146820068359375	-0.00110626995563507	1.0303800048828125	-0.01911829948425293	0.004491169929504393	1.017780029296875	-0.020597200393676757	0.012354200363159179	0.9919660034179687	-0.06137720108032227	0.014137200355529785	0.9985089721679687	-0.036106201171875	0.012921199798583985	1.0404100341796876	-0.02259749984741211	0.019423200607299806	1.029280029296875	-0.01957159996032715	0.029991399765014647	1.0071500244140625	-0.0586239013671875	0.033349601745605466	1.0073400268554686	-0.037349899291992186	0.02754710006713867	1.046800048828125	-0.024072099685668945	0.03292369842529297	1.038469970703125	-0.02293560028076172	0.04256169891357422	1.0232899780273437	-0.052593299865722656	0.048581199645996095	1.0202100219726562	-0.061882198333740236	0.018773099899291993	1.07375
24	0.8	-0.02642490005493164	-0.05663539886474609	0.9859030151367187	-0.03252370071411133	-0.04287699890136719	1.0086599731445312	-0.04132229995727539	-0.033787899017333985	1.036030029296875	-0.04403799819946289	-0.0058410301208496095	1.0576099853515626	-0.03139380073547363	-0.013693699836730957	1.0206099853515624	-0.020288999557495118	-0.011331700325012206	1.00402001953125	-0.02830270004272461	-0.008610280036926269	0.982677001953125	-0.062306598663330076	-0.010186300277709961	1.0003900146484375	-0.031442399978637695	-0.00130262005329132	1.03043994140625	-0.019184999465942383	0.004324079990386963	1.0178599853515624	-0.020748899459838866	0.012190400123596191	0.9918779907226563	-0.06147719955444336	0.013936599731445313	0.9986110229492188	-0.03600310134887695	0.01286870002746582	1.0403299560546875	-0.022649999618530273	0.019278799057006836	1.02931005859375	-0.01971980094909668	0.029825099945068358	1.0070700073242187	-0.05872700119018555	0.033174198150634764	1.007469970703125	-0.037396099090576174	0.027563100814819337	1.047530029296875	-0.02416939926147461	0.03280860137939453	1.038489990234375	-0.023072900772094725	0.0424379997253418	1.0232100219726563	-0.052711200714111325	0.04844010162353515	1.020219970703125	-0.06198509979248047	0.018633800506591795	1.0738199462890625
